<svg width="41" height="41" viewBox="0 0 41 41" fill="none" xmlns="http://www.w3.org/2000/svg">
<g clip-path="url(#clip0_212_1845)">
<path d="M11.9583 30.7498C9.82679 30.7498 7.78257 29.9399 6.27535 28.4982C4.76813 27.0565 3.92139 25.1012 3.92139 23.0623C3.92139 21.0235 4.76813 19.0681 6.27535 17.6264C7.78257 16.1847 9.82679 15.3748 11.9583 15.3748C12.4617 13.1321 13.9345 11.1612 16.0525 9.89569C17.1012 9.26909 18.2768 8.83453 19.5122 8.61683C20.7475 8.39913 22.0184 8.40255 23.2523 8.62689C24.4862 8.85123 25.6589 9.2921 26.7034 9.92433C27.748 10.5566 28.644 11.3678 29.3402 12.3116C30.0364 13.2555 30.5193 14.3136 30.7612 15.4254C31.003 16.5372 30.9993 17.681 30.75 18.7915H32.4583C34.0441 18.7915 35.5649 19.4214 36.6862 20.5427C37.8075 21.664 38.4375 23.1849 38.4375 24.7706C38.4375 26.3564 37.8075 27.8772 36.6862 28.9985C35.5649 30.1199 34.0441 30.7498 32.4583 30.7498H30.75" stroke="#484848" stroke-width="2" stroke-linecap="round" stroke-linejoin="round"/>
<path d="M15.375 25.625L20.5 20.5L25.625 25.625" stroke="#484848" stroke-width="2" stroke-linecap="round" stroke-linejoin="round"/>
<path d="M20.5 20.5V35.875" stroke="#484848" stroke-width="2" stroke-linecap="round" stroke-linejoin="round"/>
</g>
<defs>
<clipPath id="clip0_212_1845">
<rect width="41" height="41" fill="white"/>
</clipPath>
</defs>
</svg>
