<svg width="36" height="36" viewBox="0 0 36 36" fill="none" xmlns="http://www.w3.org/2000/svg">
<g id="add_13916006 1">
<path id="Vector" fill-rule="evenodd" clip-rule="evenodd" d="M8.59167 1.125C4.46794 1.125 1.125 4.46794 1.125 8.59167V21.3917C1.125 25.5154 4.46794 28.8583 8.59167 28.8583H25.8448L31.431 32.921C31.7554 33.1569 32.1848 33.1909 32.5424 33.0088C32.8999 32.8268 33.125 32.4596 33.125 32.0583V8.59167C33.125 4.46794 29.7821 1.125 25.6583 1.125H8.59167ZM11.2583 14.9917C11.2583 14.4025 11.7359 13.925 12.325 13.925H16.0583V10.1917C16.0583 9.60255 16.5359 9.125 17.125 9.125C17.7141 9.125 18.1917 9.60255 18.1917 10.1917V13.925H21.925C22.5141 13.925 22.9917 14.4025 22.9917 14.9917C22.9917 15.5808 22.5141 16.0583 21.925 16.0583H18.1917V19.7917C18.1917 20.3808 17.7141 20.8583 17.125 20.8583C16.5359 20.8583 16.0583 20.3808 16.0583 19.7917V16.0583H12.325C11.7359 16.0583 11.2583 15.5808 11.2583 14.9917Z" fill="#3B63F3"/>
</g>
</svg>
