<svg width="27" height="27" viewBox="0 0 27 27" fill="none" xmlns="http://www.w3.org/2000/svg">
<path id="Vector" d="M26.6924 25.208L20.1031 18.6188C21.741 16.6492 22.7277 14.12 22.7277 11.3643C22.7277 5.09798 17.6299 0 11.3639 0C5.09783 0 0 5.09798 0 11.3643C0 17.6301 5.09783 22.7277 11.3639 22.7277C14.1196 22.7277 16.6489 21.7411 18.6185 20.1032L25.2079 26.6925C25.4128 26.8975 25.6816 27 25.9502 27C26.2188 27 26.4875 26.8975 26.6925 26.6925C27.1025 26.2825 27.1025 25.618 26.6924 25.208ZM2.09948 11.3643C2.09948 6.25564 6.25548 2.09949 11.3639 2.09949C16.4723 2.09949 20.6281 6.25564 20.6281 11.3643C20.6281 16.4725 16.4723 20.6282 11.3639 20.6282C6.25548 20.6282 2.09948 16.4725 2.09948 11.3643Z" fill="#C1C1C1"/>
</svg>
